# xmcd
#
# Track frame offsets:
#	150
#	21930
#	41356
#	59325
#	72120
#	86133
#	101252
#	117806
#	130396
#	145807
#	163378
#	179719
#	192294
#	210699
#	223181
#
# Disc length: 3189 seconds
#
# Revision: 2
# Processed by: cddbd v1.5.2PL0 Copyright (c) Steve Scherf et al.
# Submitted via: audiograbber 1.83.01
#
DISCID=e40c730f
DTITLE=Roberta Miranda - Sem limites Disc 1
DYEAR=1900
DGENRE=
TTITLE0=UM DIA DE DOMINGO
TTITLE1=A MULHER EM MIM
TTITLE2=NO CORACAO, A PAIXAO, NA CABECA, O CIUME
TTITLE3=GARCON
TTITLE4=DEUS, COMO TE AMO
TTITLE5=SEU AMOR AINDA E TUDO
TTITLE6=OUTRA VEZ
TTITLE7=TA-HI
TTITLE8=CADE VOCE
TTITLE9=SO QUERO TE DIZER
TTITLE10=SOL DA MINHA VIDA
TTITLE11=TO QUERENDO
TTITLE12=TINHA QUE ACONTECER
TTITLE13=OLHOS CASTANHOS
TTITLE14=MEU DENGO
EXTD=
EXTT0=
EXTT1=
EXTT2=
EXTT3=
EXTT4=
EXTT5=
EXTT6=
EXTT7=
EXTT8=
EXTT9=
EXTT10=
EXTT11=
EXTT12=
EXTT13=
EXTT14=
PLAYORDER=
